<?xml version="1.0" encoding="utf-8"?>
<!-- Generator: Adobe Illustrator 21.0.2, SVG Export Plug-In . SVG Version: 6.00 Build 0)  -->
<svg version="1.1" id="Layer_1" xmlns="http://www.w3.org/2000/svg" xmlns:xlink="http://www.w3.org/1999/xlink" x="0px" y="0px"
	 viewBox="0 0 832.2 449" style="enable-background:new 0 0 832.2 449;" xml:space="preserve">
<style type="text/css">
	.st0{fill:#FFFFFF;stroke:#CCCCCC;stroke-miterlimit:10;}
	.st1{display:none;}
	.st2{display:inline;}
	.st3{fill:none;stroke:#231F20;stroke-width:18;stroke-miterlimit:10;}
</style>
<g>
	<path class="st0" d="M415.6,322c43.7,0,79-37.5,79-83.5V84c0-46-35.3-83.5-79-83.5s-79,37.5-79,83.5v154.5
		C336.6,284.5,371.9,322,415.6,322z"/>
	<path class="st0" d="M526.6,160.5v79.7c0,60.2-49.8,109.2-110,109.2s-110-49-110-109.2v-79.7h-19v79.7c0,67.2,53,122.6,120,127.5
		v62.8h-73v18h161v-18h-69v-62.8c66-4.9,117-60.3,117-127.5v-79.7H526.6z"/>
</g>
<g class="st1">
	<g class="st2">
		<path class="st3" d="M706.4,25.3c0,0,213.7,177.7,1.1,390.3"/>
		<path class="st3" d="M601.5,126.3c0,0,110.9,92.2,0.6,202.5"/>
		<path class="st3" d="M660.2,77.1c0,0,155.7,129.5,0.8,284.4"/>
	</g>
	<g class="st2">
		<path class="st3" d="M125.8,415.6c0,0-213.7-177.7-1.1-390.3"/>
		<path class="st3" d="M230.7,314.7c0,0-110.9-92.2-0.6-202.5"/>
		<path class="st3" d="M172,363.8c0,0-155.7-129.5-0.8-284.4"/>
	</g>
</g>
<g>
	<g>
		<path class="st0" d="M713.8,422l-12.7-12.7c63.7-63.7,94.4-130.3,91.4-197.9C790,156.5,765.3,110.9,745,82.2
			c-22.2-31.4-44.2-49.8-44.4-50l11.5-13.8c1,0.8,23.7,19.8,47.2,52.9c21.8,30.7,48.4,79.7,51.1,139
			C813.8,283.3,781.3,354.5,713.8,422z"/>
		<path class="st0" d="M608.5,335.1l-12.7-12.7c32.2-32.2,47.7-65.6,46.1-99.5c-2.4-52.8-45.7-89.4-46.1-89.7l11.5-13.8
			c2,1.7,49.8,42.1,52.6,102.8C661.6,261.2,644.4,299.3,608.5,335.1z"/>
		<path class="st0" d="M667.3,367.9l-12.7-12.7c45.9-45.9,68.1-93.8,65.9-142.4c-3.4-75.6-65.4-128.3-66-128.8l11.5-13.8
			c2.8,2.3,68.7,58,72.5,141.6C740.9,265.7,717,318.2,667.3,367.9z"/>
	</g>
	<g>
		<path class="st0" d="M120.1,422.5c-1-0.8-23.7-19.8-47.2-52.9c-21.8-30.7-48.4-79.7-51.1-139c-3.4-73,29.2-144.2,96.6-211.6
			l12.7,12.7C67.3,95.4,36.6,162.1,39.7,229.8c4.9,105.5,91,178.2,91.9,179L120.1,422.5z"/>
		<path class="st0" d="M224.9,321.6c-2-1.7-49.8-42.1-52.6-102.8c-1.8-39.1,15.5-77.1,51.4-113l12.7,12.7
			c-32.2,32.2-47.7,65.6-46.1,99.5c2.4,52.8,45.7,89.4,46.1,89.7L224.9,321.6z"/>
		<path class="st0" d="M166.3,370.7c-2.8-2.3-68.7-58-72.5-141.6c-2.5-53.9,21.5-106.4,71.1-156.1l12.7,12.7
			c-45.9,45.9-68.1,93.8-65.9,142.4c3.4,75.6,65.4,128.3,66.1,128.8L166.3,370.7z"/>
	</g>
</g>
</svg>
