<?xml version="1.0" encoding="utf-8"?>
<!-- Generator: Adobe Illustrator 21.0.2, SVG Export Plug-In . SVG Version: 6.00 Build 0)  -->
<svg version="1.1" id="Layer_1" xmlns="http://www.w3.org/2000/svg" xmlns:xlink="http://www.w3.org/1999/xlink" x="0px" y="0px"
	 viewBox="0 0 512 512" style="enable-background:new 0 0 512 512;" xml:space="preserve">
<style type="text/css">
	.st0{fill:#FFFFFF;stroke:#73A6EF;stroke-miterlimit:10;}
</style>
<g>
	<path class="st0" d="M256,353.5c43.7,0,79-37.5,79-83.5V115.5c0-46-35.3-83.5-79-83.5s-79,37.5-79,83.5V270
		C177,316,212.3,353.5,256,353.5z"/>
	<path class="st0" d="M367,192v79.7c0,60.2-49.8,109.2-110,109.2s-110-49-110-109.2V192h-19v79.7c0,67.2,53,122.6,120,127.5V462h-73
		v18h161v-18h-69v-62.8c66-4.9,117-60.3,117-127.5V192H367z"/>
</g>
</svg>
